<?xml version="1.0" encoding="iso-8859-1"?>
<!-- Generator: Adobe Illustrator 19.0.0, SVG Export Plug-In . SVG Version: 6.00 Build 0)  -->
<svg version="1.1" id="Capa_1" xmlns="http://www.w3.org/2000/svg" xmlns:xlink="http://www.w3.org/1999/xlink" x="0px" y="0px"
	 viewBox="0 0 512 512" style="enable-background:new 0 0 512 512;" xml:space="preserve">
<g>
	<g>
		<g>
			<polygon points="0,0 0,112 32,112 32,32 480,32 480,112 512,112 512,0 			"/>
			<polygon points="480,480 32,480 32,400 0,400 0,512 512,512 512,400 480,400 			"/>
			<polygon points="112,304 112,208 80,208 80,240 48,240 48,208 16,208 16,304 48,304 48,272 80,272 80,304 			"/>
			<polygon points="144,240 176,240 176,304 208,304 208,240 240,240 240,208 144,208 			"/>
			<polygon points="272,304 304,304 304,240 320,240 320,304 352,304 352,240 368,240 368,304 400,304 400,208 272,208 			"/>
			<polygon points="432,208 432,304 496,304 496,272 464,272 464,208 			"/>
			<rect y="144" width="144" height="32"/>
			<rect x="368" y="144" width="144" height="32"/>
			<rect x="240" y="144" width="32" height="32"/>
			<rect x="176" y="144" width="32" height="32"/>
			<rect x="304" y="144" width="32" height="32"/>
			<rect y="336" width="144" height="32"/>
			<rect x="368" y="336" width="144" height="32"/>
			<rect x="240" y="336" width="32" height="32"/>
			<rect x="176" y="336" width="32" height="32"/>
			<rect x="304" y="336" width="32" height="32"/>
		</g>
	</g>
</g>
<g>
</g>
<g>
</g>
<g>
</g>
<g>
</g>
<g>
</g>
<g>
</g>
<g>
</g>
<g>
</g>
<g>
</g>
<g>
</g>
<g>
</g>
<g>
</g>
<g>
</g>
<g>
</g>
<g>
</g>
</svg>
