<?xml version="1.0" encoding="iso-8859-1"?>
<!-- Generator: Adobe Illustrator 19.0.0, SVG Export Plug-In . SVG Version: 6.00 Build 0)  -->
<svg version="1.1" id="Layer_1" xmlns="http://www.w3.org/2000/svg" xmlns:xlink="http://www.w3.org/1999/xlink" x="0px" y="0px"
	 viewBox="0 0 512 512" style="enable-background:new 0 0 512 512;" xml:space="preserve">
<rect x="64.703" y="125.468" style="fill:#1D9DBD;" width="67.516" height="45.011"/>
<rect x="8.44" y="204.237" style="fill:#042431;" width="495.121" height="202.549"/>
<g>
	<path style="fill:#73DCE6;" d="M503.56,406.786v11.253c0,18.567-15.191,33.758-33.758,33.758H42.198
		c-18.567,0-33.758-15.191-33.758-33.758v-11.253H503.56z"/>
	<path style="fill:#73DCE6;" d="M503.56,192.984v11.253H8.44v-11.253c0-18.567,15.191-33.758,33.758-33.758h427.604
		C488.369,159.226,503.56,174.417,503.56,192.984z"/>
</g>
<path style="fill:#12728F;" d="M417.479,159.226H207.048c-4.575,40.131-7.312,90.971-7.312,146.286s2.737,106.155,7.312,146.286
	h210.431c4.575-40.131,7.312-90.971,7.312-146.286C424.791,250.195,422.056,199.356,417.479,159.226z"/>
<path style="fill:#1D9DBD;" d="M177.231,283.587c-12.43,0-22.505,10.076-22.505,22.505c0,12.43,10.076,22.505,22.505,22.505
	s45.011,0,45.011,0v-45.011C222.242,283.587,189.661,283.587,177.231,283.587z"/>
<circle style="fill:#042431;" cx="312.264" cy="306.097" r="112.527"/>
<circle style="fill:#FFFFFF;" cx="312.264" cy="306.097" r="78.769"/>
<polygon style="fill:#73DCE6;" points="383.721,60.202 240.807,60.202 229.554,102.962 312.264,125.468 394.974,102.962 "/>
<polygon style="fill:#48BDD2;" points="394.974,102.962 229.554,102.962 207.048,159.226 417.479,159.226 "/>
<g>
	<path style="fill:#A8F7FF;" d="M312.264,359.521c-14.291,0-27.713-5.552-37.796-15.635c-3.296-3.296-3.296-8.639,0-11.935
		c3.297-3.296,8.64-3.296,11.936,0c6.893,6.893,16.077,10.69,25.859,10.69c9.782,0,18.965-3.797,25.859-10.69
		c10.572-10.571,13.632-26.326,7.798-40.137c-1.813-4.294,0.197-9.245,4.491-11.058c4.288-1.813,9.243,0.196,11.058,4.491
		c8.519,20.171,4.041,43.188-11.411,58.64C339.978,353.969,326.554,359.521,312.264,359.521z"/>
	<path style="fill:#A8F7FF;" d="M280.436,282.704c-2.159,0-4.32-0.824-5.968-2.472c-3.296-3.296-3.296-8.64,0-11.936
		c15.452-15.453,38.47-19.93,58.64-11.411c4.293,1.814,6.305,6.764,4.491,11.058c-1.813,4.294-6.765,6.304-11.058,4.491
		c-13.812-5.835-29.567-2.772-40.137,7.797C284.756,281.881,282.596,282.704,280.436,282.704z"/>
</g>
<path d="M207.037,460.237c-4.233,0-7.884-3.178-8.374-7.484c-4.818-42.264-7.366-93.18-7.366-147.241s2.548-104.977,7.366-147.242
	c0.529-4.632,4.732-7.957,9.342-7.429c4.631,0.528,7.957,4.71,7.429,9.341c-4.749,41.642-7.258,91.896-7.258,145.329
	s2.509,103.688,7.258,145.329c0.528,4.632-2.799,8.813-7.429,9.341C207.681,460.219,207.358,460.237,207.037,460.237z"/>
<path d="M417.49,460.237c-0.32,0-0.643-0.018-0.967-0.055c-4.63-0.528-7.957-4.71-7.43-9.341
	c4.749-41.642,7.258-91.896,7.258-145.329s-2.509-103.688-7.258-145.329c-0.528-4.631,2.799-8.813,7.43-9.341
	c4.61-0.529,8.814,2.797,9.342,7.429c4.817,42.264,7.365,93.179,7.365,147.241s-2.548,104.977-7.366,147.242
	C425.374,457.059,421.723,460.237,417.49,460.237z"/>
<path d="M469.802,460.237H42.198C18.929,460.237,0,441.306,0,418.039V192.984c0-23.268,18.929-42.198,42.198-42.198h427.604
	c23.268,0,42.198,18.929,42.198,42.198v225.055C512,441.306,493.071,460.237,469.802,460.237z M42.198,167.665
	c-13.96,0-25.319,11.357-25.319,25.319v225.055c0,13.96,11.359,25.319,25.319,25.319h427.604c13.96,0,25.319-11.359,25.319-25.319
	V192.984c0-13.96-11.359-25.319-25.319-25.319H42.198z"/>
<path d="M203.012,415.226H8.44c-4.662,0-8.44-3.779-8.44-8.44c0-4.661,3.778-8.44,8.44-8.44h194.572c4.662,0,8.44,3.779,8.44,8.44
	C211.452,411.447,207.674,415.226,203.012,415.226z"/>
<path d="M503.56,415.226h-82.045c-4.662,0-8.44-3.779-8.44-8.44c0-4.661,3.778-8.44,8.44-8.44h82.045c4.662,0,8.44,3.779,8.44,8.44
	C512,411.447,508.222,415.226,503.56,415.226z"/>
<path d="M203.012,212.676H8.44c-4.662,0-8.44-3.779-8.44-8.44s3.778-8.44,8.44-8.44h194.572c4.662,0,8.44,3.779,8.44,8.44
	S207.674,212.676,203.012,212.676z"/>
<path d="M503.56,212.676h-82.045c-4.662,0-8.44-3.779-8.44-8.44s3.778-8.44,8.44-8.44h82.045c4.662,0,8.44,3.779,8.44,8.44
	S508.222,212.676,503.56,212.676z"/>
<path d="M199.736,337.037h-22.505c-17.063,0-30.945-13.881-30.945-30.945c0-17.064,13.883-30.945,30.945-30.945h22.505
	c4.662,0,8.44,3.779,8.44,8.44s-3.778,8.44-8.44,8.44h-22.505c-7.757,0-14.066,6.309-14.066,14.066
	c0,7.757,6.309,14.066,14.066,14.066h22.505c4.662,0,8.44,3.779,8.44,8.44C208.176,333.259,204.398,337.037,199.736,337.037z"/>
<path d="M312.264,427.059c-66.701,0-120.967-54.265-120.967-120.967s54.266-120.967,120.967-120.967s120.967,54.266,120.967,120.967
	S378.964,427.059,312.264,427.059z M312.264,202.004c-57.395,0-104.088,46.693-104.088,104.088S254.869,410.18,312.264,410.18
	s104.088-46.693,104.088-104.088S369.658,202.004,312.264,202.004z"/>
<path d="M312.264,393.301c-48.086,0-87.209-39.121-87.209-87.209s39.122-87.209,87.209-87.209s87.209,39.121,87.209,87.209
	S360.35,393.301,312.264,393.301z M312.264,235.763c-38.78,0-70.33,31.549-70.33,70.33s31.549,70.33,70.33,70.33
	s70.33-31.549,70.33-70.33S351.044,235.763,312.264,235.763z"/>
<path d="M207.046,167.668c-1.044,0-2.104-0.195-3.132-0.605c-4.328-1.731-6.433-6.643-4.703-10.97l22.506-56.264
	c1.283-3.204,4.385-5.306,7.836-5.306h37.699c4.662,0,8.44,3.779,8.44,8.44c0,4.661-3.778,8.44-8.44,8.44h-31.985l-20.383,50.958
	C213.565,165.659,210.395,167.667,207.046,167.668z"/>
<path d="M417.481,167.668c-3.35,0-6.519-2.007-7.839-5.308l-20.383-50.958h-88.249c-4.662,0-8.44-3.779-8.44-8.44
	s3.778-8.44,8.44-8.44h93.963c3.45,0,6.554,2.101,7.836,5.306l22.505,56.264c1.731,4.328-0.375,9.24-4.703,10.97
	C419.586,167.473,418.526,167.668,417.481,167.668z"/>
<path d="M132.22,167.665c-4.662,0-8.44-3.779-8.44-8.44v-25.319H73.143v25.319c0,4.661-3.778,8.44-8.44,8.44s-8.44-3.779-8.44-8.44
	v-33.758c0-4.661,3.778-8.44,8.44-8.44h67.516c4.662,0,8.44,3.779,8.44,8.44v33.758C140.659,163.887,136.882,167.665,132.22,167.665
	z"/>
<path d="M394.968,111.404c-3.74,0-7.159-2.506-8.156-6.294l-9.596-36.469H247.312l-9.596,36.469
	c-1.187,4.508-5.797,7.198-10.31,6.015c-4.507-1.186-7.199-5.802-6.013-10.31l11.253-42.76c0.976-3.708,4.328-6.291,8.162-6.291
	h142.914c3.834,0,7.186,2.584,8.162,6.291l11.253,42.76c1.187,4.508-1.507,9.124-6.013,10.31
	C396.403,111.313,395.679,111.404,394.968,111.404z"/>
<path d="M312.264,359.521C312.263,359.521,312.265,359.521,312.264,359.521c-14.291,0-27.713-5.552-37.796-15.635
	c-3.296-3.296-3.296-8.639,0-11.935c3.297-3.296,8.64-3.296,11.936,0c6.893,6.893,16.077,10.69,25.859,10.69
	c9.782,0,18.965-3.797,25.859-10.69c10.572-10.571,13.632-26.326,7.798-40.137c-1.813-4.294,0.197-9.245,4.491-11.058
	c4.288-1.813,9.243,0.196,11.058,4.491c8.519,20.171,4.041,43.188-11.411,58.64C339.978,353.969,326.554,359.521,312.264,359.521z"
	/>
<path d="M280.436,282.704c-2.159,0-4.32-0.824-5.968-2.472c-3.296-3.296-3.296-8.64,0-11.936
	c15.452-15.453,38.47-19.93,58.64-11.411c4.293,1.814,6.305,6.764,4.491,11.058c-1.813,4.294-6.765,6.304-11.058,4.491
	c-13.812-5.835-29.567-2.772-40.137,7.797C284.756,281.881,282.596,282.704,280.436,282.704z"/>
<g>
</g>
<g>
</g>
<g>
</g>
<g>
</g>
<g>
</g>
<g>
</g>
<g>
</g>
<g>
</g>
<g>
</g>
<g>
</g>
<g>
</g>
<g>
</g>
<g>
</g>
<g>
</g>
<g>
</g>
</svg>
