<?xml version="1.0" encoding="iso-8859-1"?>
<!-- Generator: Adobe Illustrator 19.0.0, SVG Export Plug-In . SVG Version: 6.00 Build 0)  -->
<svg xmlns="http://www.w3.org/2000/svg" xmlns:xlink="http://www.w3.org/1999/xlink" version="1.1" id="Capa_1" x="0px" y="0px" viewBox="0 0 60 60" style="enable-background:new 0 0 60 60;" xml:space="preserve" width="512px" height="512px">
<g>
	<g>
		<path d="M54.5,46L54.5,46V1c0-0.6-0.4-1-1-1h-47c-0.6,0-1,0.4-1,1v58c0,0.6,0.4,1,1,1h34c0.3,0,0.5-0.1,0.7-0.3l13-13    c0.1-0.1,0.1-0.2,0.2-0.3v-0.1C54.5,46.2,54.5,46.1,54.5,46z M7.5,2h45v43h-12c-0.6,0-1,0.4-1,1v12h-32V2z M41.5,56.6V47h9.6    l-4.8,4.8L41.5,56.6z" fill="#D80027"/>
		<path d="M15.5,14c0.3,0,0.5-0.1,0.7-0.3l6-6l-1.4-1.4l-5.3,5.3l-2.3-2.3l-1.4,1.4l3,3C15,13.9,15.2,14,15.5,14z" fill="#D80027"/>
		<rect x="25.5" y="7" width="10" height="2" fill="#D80027"/>
		<rect x="25.5" y="12" width="22" height="2" fill="#D80027"/>
		<path d="M15.5,27c0.3,0,0.5-0.1,0.7-0.3l6-6l-1.4-1.4l-5.3,5.3l-2.3-2.3l-1.4,1.4l3,3C15,26.9,15.2,27,15.5,27z" fill="#D80027"/>
		<rect x="25.5" y="20" width="10" height="2" fill="#D80027"/>
		<rect x="25.5" y="25" width="22" height="2" fill="#D80027"/>
		<path d="M15.5,40c0.3,0,0.5-0.1,0.7-0.3l6-6l-1.4-1.4l-5.3,5.3l-2.3-2.3l-1.4,1.4l3,3C15,39.9,15.2,40,15.5,40z" fill="#D80027"/>
		<rect x="25.5" y="33" width="10" height="2" fill="#D80027"/>
		<rect x="25.5" y="38" width="22" height="2" fill="#D80027"/>
		<rect x="12.5" y="46" width="11" height="2" fill="#D80027"/>
		<rect x="12.5" y="51" width="20" height="2" fill="#D80027"/>
	</g>
</g>
<g>
</g>
<g>
</g>
<g>
</g>
<g>
</g>
<g>
</g>
<g>
</g>
<g>
</g>
<g>
</g>
<g>
</g>
<g>
</g>
<g>
</g>
<g>
</g>
<g>
</g>
<g>
</g>
<g>
</g>
</svg>
